<svg xmlns="http://www.w3.org/2000/svg" width="375" viewBox="0 0 375 375" height="375" version="1.0"><defs><clipPath id="a"><path d="M 140.273438 112.5 L 251 112.5 L 251 262 L 140.273438 262 Z M 140.273438 112.5"/></clipPath></defs><path fill="#1868B7" d="M 195.667969 69.644531 C 130.636719 69.644531 77.917969 122.363281 77.917969 187.394531 C 77.917969 252.425781 130.636719 305.144531 195.667969 305.144531 C 260.699219 305.144531 313.417969 252.425781 313.417969 187.394531 C 313.417969 122.363281 260.699219 69.644531 195.667969 69.644531"/><g clip-path="url(#a)"><path fill="#FFF" d="M 244.476562 261.851562 C 243.582031 261.847656 242.726562 261.667969 241.910156 261.3125 C 241.09375 260.957031 240.378906 260.453125 239.765625 259.804688 L 195.773438 213.148438 L 151.78125 259.804688 C 151.332031 260.273438 150.828125 260.667969 150.265625 260.988281 C 149.699219 261.304688 149.101562 261.535156 148.46875 261.675781 C 147.835938 261.8125 147.195312 261.859375 146.546875 261.804688 C 145.902344 261.753906 145.277344 261.605469 144.675781 261.367188 C 144.074219 261.128906 143.519531 260.804688 143.011719 260.402344 C 142.507812 259.996094 142.070312 259.527344 141.707031 258.988281 C 141.339844 258.453125 141.0625 257.878906 140.871094 257.257812 C 140.679688 256.640625 140.582031 256.003906 140.578125 255.355469 L 140.578125 118.992188 C 140.578125 118.566406 140.621094 118.144531 140.703125 117.726562 C 140.785156 117.308594 140.910156 116.902344 141.074219 116.507812 C 141.234375 116.113281 141.4375 115.742188 141.671875 115.386719 C 141.910156 115.03125 142.179688 114.703125 142.480469 114.402344 C 142.78125 114.101562 143.109375 113.832031 143.464844 113.59375 C 143.820312 113.359375 144.195312 113.15625 144.585938 112.996094 C 144.980469 112.832031 145.386719 112.707031 145.804688 112.625 C 146.222656 112.542969 146.644531 112.5 147.074219 112.5 L 244.476562 112.5 C 244.902344 112.5 245.324219 112.542969 245.742188 112.625 C 246.160156 112.707031 246.566406 112.832031 246.960938 112.996094 C 247.355469 113.15625 247.726562 113.359375 248.082031 113.59375 C 248.4375 113.832031 248.765625 114.101562 249.066406 114.402344 C 249.367188 114.703125 249.636719 115.03125 249.875 115.386719 C 250.109375 115.742188 250.3125 116.113281 250.472656 116.507812 C 250.636719 116.902344 250.761719 117.308594 250.84375 117.726562 C 250.925781 118.144531 250.96875 118.566406 250.96875 118.992188 L 250.96875 255.355469 C 250.96875 255.785156 250.925781 256.207031 250.84375 256.625 C 250.761719 257.042969 250.636719 257.449219 250.472656 257.84375 C 250.3125 258.234375 250.109375 258.609375 249.875 258.964844 C 249.636719 259.320312 249.367188 259.648438 249.066406 259.949219 C 248.765625 260.25 248.4375 260.519531 248.082031 260.757812 C 247.726562 260.992188 247.355469 261.191406 246.960938 261.355469 C 246.566406 261.519531 246.160156 261.644531 245.742188 261.726562 C 245.324219 261.808594 244.902344 261.851562 244.476562 261.851562 Z M 195.773438 197.335938 C 196.664062 197.339844 197.519531 197.519531 198.339844 197.875 C 199.15625 198.230469 199.871094 198.734375 200.480469 199.382812 L 237.980469 239.125 L 237.980469 125.488281 L 153.566406 125.488281 L 153.566406 239.125 L 191.066406 199.351562 C 191.679688 198.707031 192.394531 198.210938 193.214844 197.859375 C 194.03125 197.511719 194.882812 197.335938 195.773438 197.335938 Z M 195.773438 197.335938"/></g></svg>